<svg xmlns="http://www.w3.org/2000/svg" 
     viewBox="0 0 512.005 512.005" 
     fill="currentColor" 
     class="w-12 h-12 text-blue-500">
  <g>
    <g>
      <g>
        <path d="M511.513,223.904L452.508,42.326c-1.708-5.251-7.348-8.125-12.602-6.42L6.912,176.612
            c-5.252,1.707-8.126,7.349-6.42,12.602l27.93,85.949c-0.008,0.168-0.025,0.333-0.025,0.503v190.925c0,5.522,4.478,10,10,10
            H493.68c5.522,0,10-4.478,10-10V275.666c0-5.522-4.478-10-10-10h-78.32l89.734-29.16
            C510.345,234.799,513.219,229.157,511.513,223.904z M483.679,285.666v170.925H48.396V285.666h55.392v111.408
            c0,5.522,4.478,10,10,10c5.522,0,10-4.478,10-10V285.666h228.441H483.679z M350.645,265.666H46.365l-23.762-73.123l52.711-17.129
            l20.162,61.276c1.385,4.208,5.296,6.877,9.497,6.877c1.036,0,2.09-0.162,3.128-0.504c5.246-1.727,8.1-7.378,6.373-12.625
            l-20.139-61.206L436.577,58.017l52.825,162.558L350.645,265.666z"/>
        <!-- (tu peux garder tous les autres <path>, ils prendront aussi currentColor) -->
      </g>
    </g>
  </g>
</svg>
